<svg version="1.1" xmlns="http://www.w3.org/2000/svg" xmlns:xlink="http://www.w3.org/1999/xlink" width="82.35993" height="82.35993" viewBox="0,0,82.35993,82.35993"><g transform="translate(-198.82007,-138.82004)"><g stroke-miterlimit="10"><path d="M201.32008,218.67998v-77.35993h77.35993v77.35993z" fill="#969696" stroke="#000000" stroke-width="5" stroke-linecap="butt"/><path d="M240.13449,209.49845l25.01563,-14.6187v-24.01644l-24.20868,-20.36176l-26.09156,19.57862v21.92805z" fill="none" stroke="#000000" stroke-width="5" stroke-linecap="round"/><path d="M263.62929,168.4047c0,0 0.91915,-0.39392 1.31306,0.52523c0.39392,0.91915 -0.52523,1.31306 -0.52523,1.31306c-2.28489,0.95074 -4.41294,2.56531 -6.60321,4.0395c0.94682,-0.00069 1.89366,-0.00109 2.84053,0.00886c0.55291,0.28949 1.37641,0.31188 1.65873,0.86849c0.60638,1.1955 -0.70061,6.42721 -1.29445,7.62335c-0.28109,0.56619 -0.69344,1.30027 -1.32286,1.35882c-0.89501,0.08325 -1.69943,-0.60049 -2.50317,-1.00293c-1.09317,-0.54736 -2.03957,-1.44553 -3.22393,-1.74871c-0.37141,-0.09508 -0.80269,-0.07074 -1.24858,-0.03251c-0.03278,0.6267 -0.18068,1.22176 -0.48066,1.74179c-0.21417,0.37127 -0.98509,0.16197 -1.16094,0.55285c-0.46095,1.02463 0.48231,2.19567 0.66871,3.30365c0.0734,0.4363 0.42607,3.08777 0.72958,4.68318c0.13564,-0.56705 0.23578,-1.12537 0.28381,-1.65729c0.12564,-1.39181 -0.31853,-2.47048 0.64829,-3.73728c0.59581,-0.78068 1.75281,-0.88818 2.60473,-1.37674c0.66154,-0.19974 1.47111,-1.06166 1.98461,-0.59922c0.7154,0.64426 0.39664,1.88698 0.5073,2.84334c0.16825,1.45406 0.55474,4.71961 -0.21375,5.9454c-0.49412,0.78815 -2.11128,0.71722 -2.89504,0.93991c-0.52643,0.14958 -1.04418,0.4047 -1.5726,0.58179c-0.39567,1.29242 -0.89645,2.47194 -1.46923,3.0381c-1.37641,1.36049 -3.28067,0.35588 -4.91239,0.36051c-0.62835,0.00179 -1.26764,0.1042 -1.89081,0.05266c0.43318,0.89097 -1.1535,3.11618 -2.09261,3.28876c-0.45324,0.08329 -1.0459,0.06305 -1.69531,-0.00548c0,1.96939 0,3.93878 0,5.90817v0.16266c0,0 0,1 -1,1c-1,0 -1,-1 -1,-1c0,-2.10334 0,-4.22889 0,-6.36023c-0.8387,-0.13554 -1.64026,-0.26198 -2.25031,-0.27616c-0.55604,-0.00395 -2.61248,0.02091 -2.90662,-0.20963c-1.16035,-0.90947 -1.56027,-3.14651 -2.27729,-4.79899c-0.86057,-0.28395 -1.68727,-0.62183 -2.45231,-1.02503c-0.26038,0.15344 -0.52124,0.29246 -0.7669,0.34024c-2.55777,0.49745 -4.97192,0.55526 -7.5697,0.55526h-1.13017c0,0 -1,0 -1,-1c0,-1 1,-1 1,-1h1.13017c2.13978,0 4.1366,-0.03341 6.21285,-0.34957c-1.03716,-0.93326 -1.81369,-2.0892 -2.19278,-3.52392c-0.28319,-1.07175 -0.33277,-2.25981 -0.02753,-3.3255c0.01976,-0.06899 0.05711,-0.13308 0.1044,-0.19406c-0.04532,-0.09448 -0.07992,-0.20615 -0.09937,-0.33806c-0.04514,0.03096 -0.08974,0.05285 -0.13275,0.06079c-1.43774,0.26555 -3.61857,0.00089 -5.09377,-0.00294l-0.88899,0.18276c0,0 -0.98058,0.19612 -1.17669,-0.78446c-0.19611,-0.98058 0.78447,-1.17669 0.78447,-1.17669l1.08414,-0.21187c1.71442,-0.00403 3.45254,-0.05441 5.16657,-0.00293c0.79422,0.02385 1.87136,-0.48243 2.3803,0.12776c0.13729,0.16461 0.22597,0.35688 0.27862,0.57072c1.40502,-0.07655 3.23712,-0.18114 3.32369,-0.31582c0.44573,-0.69349 -0.04158,-2.0734 -0.33169,-3.43052c-0.53347,0.27067 -1.23045,0.08331 -1.83982,0.11308c-1.82371,0.08907 -5.36525,0.6384 -6.96894,-0.30814c-2.70479,-1.59644 -0.93543,-3.67536 0.25297,-5.46134c-2.6195,-1.58014 -5.19742,-3.45806 -7.98813,-4.49123c0,0 -0.93633,-0.35112 -0.58521,-1.28745c0.35112,-0.93633 1.28745,-0.58521 1.28745,-0.58521c0.75054,0.28455 1.4848,0.62375 2.2081,0.99834c0.34075,-0.19976 0.74297,-0.11932 0.74297,-0.11932c1.4501,0.29734 6.62184,1.59471 7.08808,3.30312c0.11091,0.40641 0.00127,0.85471 -0.22146,1.32663c0.0428,0.02283 0.08561,0.04555 0.12847,0.06814c1.50666,0.7942 3.15299,1.60849 4.86838,2.37537c0.18261,-1.95095 0.33668,-4.41028 0.90103,-6.27663c-0.89284,0.00328 -2.56097,0.17029 -3.13371,-0.83394c-0.36534,-0.64059 -0.07331,-2.95083 -0.16939,-3.82766c-0.21746,-1.98453 -0.93259,-3.2521 -2.00505,-4.86008c0,0 -0.5547,-0.83205 0.27735,-1.38675c0.83205,-0.5547 1.38675,0.27735 1.38675,0.27735c2.0492,3.0751 1.66251,5.26435 2.16647,8.67589c0.1056,0.71486 1.12679,0.34394 2.04444,0.10518c0.16066,-0.37276 0.38066,-0.69151 0.72683,-0.87706c0.62804,-0.33664 1.39058,0.39401 1.99157,0.77686c0.00608,0.00387 0.01214,0.00774 0.01819,0.01161c1.48038,0.09547 2.92403,0.29486 4.421,0.54422l0.62486,-0.0136c0,0 1,0 1,1c0,1 -1,1 -1,1l-0.95365,-0.01361c-0.21984,-0.03666 -0.43868,-0.07125 -0.65671,-0.10386c0.088,0.0472 0.17848,0.09398 0.27173,0.1403c0.5796,0.28797 1.4619,0.36796 1.67708,0.97834c0.24131,0.68447 -0.62436,2.54881 -1.40141,4.05115c0.73166,0.23886 1.45705,0.5008 2.20972,0.65584c0.59822,0.12322 1.31329,0.02904 2.03386,-0.06095c0.04113,-0.14355 0.09474,-0.23736 0.09474,-0.23736c0.79761,-1.3907 1.41782,-2.84485 1.88321,-4.34284c-1.56175,-1.03489 -3.14365,-2.04459 -4.62874,-3.18098c-1.12329,-0.85954 -3.18618,-2.33487 -2.85726,-4.14236c0.0741,-0.4072 0.36901,-0.6793 0.76349,-0.89673c-0.10484,-1.12454 -0.13039,-2.21671 -0.20757,-2.91358c0.53746,-0.90796 1.07281,-1.50098 1.65222,-1.8873c-0.72268,-1.27562 -2.02303,-4.23047 -3.43236,-4.0285c0,0 -1,0 -1,-1c0,-1 1,-1 1,-1c2.79506,0.18091 3.89575,2.91623 5.24083,5.1602c0.04425,0.07382 0.09225,0.14615 0.14309,0.21733c0.82405,-0.08966 1.76841,-0.05149 2.90328,-0.05005c0.37332,0.00047 3.1684,0.00199 3.21146,0.03967c0.83729,0.73266 0.35374,4.70775 0.35362,5.66901c-0.0001,0.88616 -0.03448,1.76848 -0.10596,2.64443c1.01293,0.16753 2.02241,0.35828 3.03423,0.54224c1.00704,0.18308 2.31723,-0.2981 3.04099,0.42566c0.95458,0.95458 0.65344,4.25179 0.54211,5.49099c-0.02897,0.32248 -0.46491,0.72527 -0.22666,0.94452c0.044,0.04049 0.09238,0.07022 0.14425,0.09142c3.38868,-1.73573 6.36296,-4.449 9.74432,-5.93141zM239.76386,190.14342c0,-1.22435 -0.08472,-2.52888 -0.11862,-3.83312c-0.76122,-0.16174 -1.53338,-0.29505 -2.34005,-0.37137c-1.13177,-0.10708 -2.39032,0.46154 -3.28917,-0.3715c1.16297,1.98917 -0.6152,4.35265 1.54848,5.14823c0.36286,0.13342 1.48043,0.85642 2.06659,0.58639c0.73788,-0.33992 1.4376,-0.72737 2.13277,-1.1201c0,-0.01284 0,-0.02569 0,-0.03853zM232.65205,179.73702c0.12297,1.11105 0.59835,3.03383 0.55112,4.44967c2.10833,-0.32796 4.32409,-0.36241 6.45446,-0.00747c0.03596,-0.73571 0.11327,-1.45676 0.2577,-2.14785c-0.09352,0.01691 -0.19677,0.02315 -0.30377,0.00829c-1.89726,0.40145 -5.18807,-1.53513 -6.95951,-2.30264zM224.11415,176.22693c-0.08835,-0.04647 -0.17658,-0.09354 -0.26472,-0.14119c-0.61379,0.9047 -1.19182,1.81748 -1.10538,2.63136c0.10684,1.00598 2.00921,0.29269 3.02085,0.29175c2.27098,-0.00211 3.52985,0.73887 3.94718,-0.41398c-1.90481,-0.71457 -3.8236,-1.43475 -5.59793,-2.36794zM241.79161,184.6795c0.96378,0.29643 1.8942,0.68611 2.77126,1.17901c0.48753,0.27399 -0.28994,-1.0931 -0.29074,-1.65234c-0.00096,-0.67416 0.04379,-1.39011 0.08401,-2.1124c-0.16723,0.09799 -0.38332,0.15552 -0.64827,0.09181c-0.00056,0.06769 -0.00091,0.13157 -0.00083,0.19104v0.19732c0,0 0,1 -1,1c-1,0 -1,-1 -1,-1v-0.19732c0.0006,-0.4127 0.15671,-0.85309 0.23156,-1.27395c-0.16593,0.06645 -0.33147,0.13358 -0.49657,0.20146c0.2002,1.11238 0.3023,2.2403 0.34958,3.37538zM241.76386,191.44464c0,1.26763 0,2.53525 0,3.80287c0.25838,0.01424 0.51564,0.02736 0.77145,0.03977c3.2462,0.1932 3.11183,-1.36448 3.94357,-4.29847c0.12726,-0.44894 0.12707,-1.22978 0.29095,-1.69556c-0.83896,0.32253 -2.32752,0.74409 -2.59449,0.84018c-0.71659,0.25791 -1.54344,0.71149 -2.41137,1.19456c-0.00007,0.03889 -0.0001,0.07778 -0.0001,0.11665zM255.31984,177.18969c-0.55063,-0.18562 -1.10417,-0.36069 -1.65921,-0.53036c-0.61442,0.27833 -1.23636,0.5426 -1.86371,0.79664v0.03815c0.04984,0.10128 0.09844,0.20433 0.14562,0.30891c1.14012,-0.2876 2.27299,-0.51753 3.3773,-0.61334zM248.13899,174.96256c-0.6801,-0.55737 -1.38645,-1.08091 -2.10683,-1.58643c-0.39476,1.16926 -0.87816,2.31289 -1.45824,3.42374c0.10066,0.03091 0.19805,0.06878 0.29163,0.11464c0.34518,0.16916 0.61945,0.4003 0.83616,0.67821c1.44826,-0.51138 2.89849,-1.02185 4.3249,-1.57592c0.11552,-0.13938 0.26814,-0.24689 0.44272,-0.3074c-0.78052,-0.23558 -1.5586,-0.47978 -2.33034,-0.74684zM249.79693,178.39251c0,-0.03441 0,-0.09075 0,-0.16253c-0.72026,0.26796 -1.44456,0.52801 -2.16982,0.78571c0.71709,-0.19848 1.44221,-0.41282 2.16982,-0.62318zM240.55151,161.30311c-0.03911,-0.2227 -0.13566,-0.41991 -0.2635,-0.60365c-0.43598,0.1831 -0.77127,0.42653 -0.93961,0.75206c0.06448,0.33176 0.11089,0.98648 0.17136,1.71655c0.69573,-0.35886 1.20649,-0.8698 1.03175,-1.86496zM242.49482,160.83029c0.1033,0.89733 -0.1432,1.82898 -0.4808,2.66678c-0.21773,0.54033 -1.59019,1.58155 -2.22222,1.92266c0.09979,0.49337 0.22999,0.86972 0.40699,1.00272c0.34309,0.25779 3.06851,-0.05772 3.35282,-0.04017c0.60879,0.03759 1.21388,0.09628 1.81644,0.16992c0.05965,-0.78101 0.08807,-1.56692 0.08797,-2.35533c-0.00015,-1.2407 -0.20201,-2.49795 0,-3.7221c0.02983,-0.18079 0.53597,-0.43889 0.35362,-0.42086c-0.70585,0.06976 -2.14127,0.04509 -3.49189,0.19348c0.0899,0.18286 0.15319,0.37553 0.17706,0.58292zM249.11395,173.21629c0.90485,0.28522 1.81541,0.54654 2.72563,0.80694c0.06695,-1.70097 0.87981,-4.09862 0.27528,-4.70314c-0.49248,-0.49248 -1.40342,0.15267 -2.08919,0.03102c-0.96982,-0.17202 -1.93599,-0.3553 -2.90517,-0.51811c-0.12564,0.83747 -0.28812,1.66715 -0.49,2.48675c0.85847,0.5975 1.69468,1.22037 2.48345,1.89654zM259.68949,177.04914c0,0.38601 -0.21871,0.72094 -0.53898,0.88762l-1.73796,0.94798l-0.19402,-0.35571c-0.74569,0.39557 -1.53928,0.74153 -2.36415,1.04598c1.70725,0.58021 2.8442,1.75454 4.40724,2.61472c0.59177,0.32567 0.08586,-1.35338 0.22982,-2.01333c0.15686,-0.71911 1.25326,-4.03921 0.78474,-3.92114c-0.26371,0.00351 -0.57692,0.02072 -0.92509,0.044c0.20752,0.18323 0.3384,0.45127 0.3384,0.74988zM245.14525,168.54023c-0.56513,-0.06977 -1.13278,-0.1255 -1.70424,-0.16101c-0.32987,-0.0205 -0.74199,0.00034 -1.18787,0.02417c0.85683,0.58689 1.73324,1.1527 2.60457,1.72483c0.1125,-0.5255 0.20805,-1.05508 0.28754,-1.58799zM232.251,192.50805c0.52778,0.3252 0.93667,0.82133 1.27606,1.40353c1.96522,0.68799 4.10773,1.01423 6.23679,1.19797c0,-0.90597 0,-1.81023 0,-2.71153c-1.20147,0.58459 -2.38296,0.99522 -3.37461,0.82388c-4.32829,-0.74783 -3.89549,-3.99196 -3.88884,-7.36863c-0.9643,0.59706 -3.13487,0.68603 -4.65579,0.77242c-0.22095,1.27596 -0.51112,2.66875 0.26664,3.62844c0.78381,0.96716 1.69048,1.74187 2.68482,2.3646c0.67432,-0.13003 1.29225,-0.2109 1.45492,-0.11067zM235.81131,198.94191c0.37145,0.44696 1.15158,-0.19759 1.73273,-0.19344c0.56363,0.01324 1.40204,0.02352 2.21982,0.0545c0,-0.56496 0,-1.12993 0,-1.69459c-1.62856,-0.13906 -3.42674,-0.36219 -5.18561,-0.75505c0.36959,1.01141 0.72246,1.97419 1.23306,2.58859zM243.41536,199.24756c0.05924,-0.35738 -0.21453,-1.27805 -0.35092,-1.91916c-0.22393,-0.01821 -0.43599,-0.03548 -0.62901,-0.04361c-0.21664,-0.01112 -0.44078,-0.0231 -0.67157,-0.03628c0,0.57311 0,1.14623 0,1.71934c0.59777,0.14996 1.55995,0.83207 1.6515,0.27971zM249.14328,195.98535c0.56565,0.07268 1.44914,0.87707 1.6741,0.35301c0.25024,-0.58294 0.51973,-1.2309 0.77676,-1.91017c-0.01664,-0.01019 -0.03331,-0.02062 -0.05001,-0.03133c-0.24586,-0.15754 -0.87524,-2.8935 -0.93302,-3.11314c-0.56948,-2.1646 -2.05158,-6.40963 -1.27974,-8.60449c0.1506,-0.42825 0.91774,-0.28104 1.20684,-0.63103c0.18071,-0.21878 0.23128,-0.48943 0.20929,-0.78892c-0.20397,-0.08587 -0.39285,-0.21257 -0.55996,-0.39565c-1.26291,0.25872 -2.52849,0.46236 -3.74818,0.63448c-0.05005,1.00205 -0.16625,1.97341 -0.16724,2.70805c-0.00078,0.57636 0.18464,3.05015 -0.68536,3.37038c-0.86622,0.31884 -1.82685,-0.27976 -2.72477,-0.49364c-0.34893,-0.08311 -0.69337,-0.16861 -1.03545,-0.2539c-0.00298,0.74632 -0.01776,1.49345 -0.03223,2.23904c0.94404,-0.47817 1.93633,-0.89487 3.05336,-1.15391c0.19171,-0.04445 3.38998,-0.78782 3.55015,-0.64346c0.58398,0.52635 0.43184,1.5322 0.4334,2.31838c0.00272,1.36667 -0.83819,4.52086 -1.84287,6.26096c0.81486,0.00994 1.63733,0.06885 2.15491,0.13535zM254.40576,192.28728c0.1572,-0.09498 0.31509,-0.17619 0.4731,-0.22159c0.5948,-0.17093 1.60148,0.32687 1.8405,-0.24398c0.52916,-1.26382 -0.47027,-3.32683 -0.21376,-4.70956c0.01983,-0.10691 0.04496,-0.21534 0.07667,-0.32231c-0.60733,0.21523 -1.29444,0.31087 -1.6887,0.79505c-0.54315,0.66704 -0.05499,1.72087 -0.14097,2.57677c-0.05286,0.52622 -0.17181,1.28517 -0.34684,2.12561zM232.88179,177.62847c0.72135,-0.03095 1.51244,0.00673 2.33514,0.08023l0.08433,-0.51484c0.40278,-0.80339 2.31655,-3.74972 2.33182,-4.31636c0.00511,-0.18989 -0.36659,0.19836 -0.55003,0.14903c-0.68617,-0.18455 -1.34335,-0.48198 -1.96531,-0.82556c-0.56818,-0.31386 -1.09884,-0.7018 -1.58277,-1.13441c-0.10061,-0.08994 -0.20213,-0.26071 -0.29648,-0.45499c-0.13662,-0.00644 -0.27347,-0.01232 -0.41059,-0.01767c-0.01614,2.23713 -0.74034,4.49704 -0.96093,6.70236c-0.00099,0.11352 0.00186,0.23996 0.00584,0.37584c0.0294,0.01208 0.05883,0.02412 0.08826,0.03616c0.30481,-0.05736 0.63272,-0.06743 0.92073,-0.07979zM222.98355,173.27961c0.05971,0.03619 0.11944,0.07226 0.1792,0.1082c-0.03454,-0.05423 -0.09741,-0.08783 -0.1792,-0.1082z" fill="#000000" stroke="none" stroke-width="0.5" stroke-linecap="butt"/></g></g></svg>